<?xml version="1.0" encoding="UTF-8" standalone="no"?>
<svg
   xmlns:dc="http://purl.org/dc/elements/1.1/"
   xmlns:cc="http://creativecommons.org/ns#"
   xmlns:rdf="http://www.w3.org/1999/02/22-rdf-syntax-ns#"
   xmlns:svg="http://www.w3.org/2000/svg"
   xmlns="http://www.w3.org/2000/svg"
   xmlns:sodipodi="http://sodipodi.sourceforge.net/DTD/sodipodi-0.dtd"
   xmlns:inkscape="http://www.inkscape.org/namespaces/inkscape"
   width="100px"
   height="43px"
   viewBox="0 0 100 43"
   version="1.1"
   id="svg31"
   sodipodi:docname="avl-logo.svg"
   inkscape:version="0.92.4 (5da689c313, 2019-01-14)">
  <metadata
     id="metadata35">
    <rdf:RDF>
      <cc:Work
         rdf:about="">
        <dc:format>image/svg+xml</dc:format>
        <dc:type
           rdf:resource="http://purl.org/dc/dcmitype/StillImage" />
        <dc:title>logo</dc:title>
      </cc:Work>
    </rdf:RDF>
  </metadata>
  <sodipodi:namedview
     pagecolor="#ffffff"
     bordercolor="#666666"
     borderopacity="1"
     objecttolerance="10"
     gridtolerance="10"
     guidetolerance="10"
     inkscape:pageopacity="0"
     inkscape:pageshadow="2"
     inkscape:window-width="2176"
     inkscape:window-height="1053"
     id="namedview33"
     showgrid="false"
     inkscape:zoom="5.4883721"
     inkscape:cx="50"
     inkscape:cy="21.5"
     inkscape:window-x="0"
     inkscape:window-y="0"
     inkscape:window-maximized="0"
     inkscape:current-layer="svg31" />
  <!-- Generator: Sketch 46.2 (44496) - http://www.bohemiancoding.com/sketch -->
  <title
     id="title2">logo</title>
  <desc
     id="desc4">Created with Sketch.</desc>
  <defs
     id="defs6" />
  <g
     id="Page-1"
     transform="matrix(1.0008561,0,0,1.0041923,-1.3871713e-6,-6.5963275e-7)"
     style="fill:none;fill-rule:evenodd;stroke:none;stroke-width:1">
    <g
       id="Press-grid-page---webinars"
       transform="translate(-113,-13)">
      <g
         id="header">
        <g
           id="logo"
           transform="translate(113,13)">
          <polygon
             id="Fill-1"
             points="0,42.820485 99.914466,42.820485 99.914466,0 0,0 "
             style="fill:#005a99" />
          <g
             id="Group-36"
             transform="translate(11.678314,8.434338)">
            <path
               d="m 56.005886,21.659315 c -0.635819,0.504763 -2.370698,-1.150963 -2.52576,-1.365714 h -0.0019 c -0.155711,-0.214102 -1.191188,-2.376537 -0.51709,-2.825503 0.942051,-0.629331 3.291987,0.665664 3.364652,0.757144 0.06553,0.09862 0.570291,2.732725 -0.319856,3.434073 m 1.896428,-4.577899 v 0 h -0.0019 v -0.0019 0.0019 c -2.43947,-1.665457 -4.120499,-2.017753 -5.323365,-0.885606 -1.13085,1.062727 -0.47362,3.046094 0.470377,4.411159 1.008876,1.320947 2.689905,2.558849 4.050428,1.811437 1.449409,-0.793477 1.632369,-2.501755 0.804506,-5.33699"
               id="Fill-2"
               inkscape:connector-curvature="0"
               style="fill:#ffffff" />
            <path
               d="m 60.087327,15.492971 h -6.49e-4 c -2.161137,-1.014716 -3.538529,-0.952432 -4.394939,-0.796721 -0.07072,0.01298 -0.126515,0.04607 -0.107051,0.07072 0.01492,0.01946 0.03439,0.02595 0.110944,0.05385 1.143177,0.426258 2.21888,0.986817 3.018195,1.668701 v 0.0019 c 0.402254,0.969948 0.60338,2.166327 0.654635,3.386062 0.0026,0.08175 0.0032,0.101861 0.01752,0.121324 0.01687,0.02595 0.06553,-0.01622 0.101212,-0.08045 0.411336,-0.76493 0.896635,-2.056681 0.600136,-4.423486 -0.0013,0 0,-0.0019 0,-0.0019"
               id="Fill-4"
               inkscape:connector-curvature="0"
               style="fill:#afdff9" />
            <path
               d="m 61.84115,14.217764 v 0.0019 c -0.871981,-0.547583 -2.388215,-0.618302 -3.384764,-0.326344 -0.08759,0.02271 -0.125218,0.05061 -0.110945,0.07007 0.01168,0.01817 0.04023,0.02984 0.09537,0.04477 1.280722,0.304934 1.889292,0.585213 2.453095,0.899879 0.124569,0.630629 0.203073,1.296293 0.09667,2.610752 -0.0026,0.0558 -0.0013,0.08564 0.01298,0.103158 0.01492,0.01817 0.05125,-0.0065 0.09991,-0.08369 0.58716,-0.857059 0.987466,-2.322039 0.73768,-3.318588 z"
               id="Fill-6"
               inkscape:connector-curvature="0"
               style="fill:#ffffff" />
            <path
               d="m 69.472799,22.834543 c 0.283523,0.760388 -1.825061,1.899672 -2.078091,1.98142 -0.253679,0.0824 -2.628919,0.400307 -2.847563,-0.380194 -0.306231,-1.089976 1.650535,-2.925417 1.759533,-2.964994 0.113539,-0.03309 2.776195,0.30169 3.166121,1.363768 m -3.766905,-3.217376 h -6.49e-4 v 0.0013 l -6.49e-4,-0.0013 6.49e-4,0.0013 c -2.336312,1.806246 -3.192073,3.294582 -2.487481,4.789406 0.66242,1.403344 2.750892,1.391666 4.341089,0.916748 v -0.0019 C 69.126991,24.771894 70.82359,23.556052 70.533579,22.031383 70.22605,20.4068 68.657912,19.705452 65.705894,19.617216"
               id="Fill-8"
               inkscape:connector-curvature="0"
               style="fill:#ffffff" />
            <path
               d="m 64.870181,17.048457 v 0 c -1.632369,1.742664 -1.99829,3.072046 -2.116371,3.933646 -0.0078,0.07072 0.0058,0.134949 0.03568,0.123271 0.02271,-0.0065 0.03504,-0.02271 0.08499,-0.08824 0.759091,-0.955676 1.623935,-1.806895 2.519921,-2.35383 v -0.0019 c 0,0 0,0.0019 0.0019,0.0019 1.047156,-0.08369 2.246129,0.09667 3.422395,0.422366 0.0785,0.02336 0.09732,0.02984 0.120027,0.02141 0.02984,-0.0078 0.0045,-0.06683 -0.04477,-0.121324 -0.601433,-0.627385 -1.679081,-1.488337 -4.021881,-1.937303 z"
               id="Fill-10"
               inkscape:connector-curvature="0"
               style="fill:#afdff9" />
            <path
               d="m 64.199845,14.984899 6.49e-4,0.0013 c -0.788935,0.661122 -1.32484,2.080037 -1.354684,3.118109 -0.0045,0.09148 0.0097,0.135599 0.03309,0.127813 0.02011,-0.0052 0.03893,-0.02984 0.07007,-0.07721 0.686425,-1.124363 1.140582,-1.616149 1.614203,-2.055384 0.639712,0.0785 1.296293,0.208264 2.513432,0.714324 0.05125,0.02011 0.08175,0.0279 0.101212,0.02011 0.02336,-0.0065 0.01038,-0.05126 -0.04801,-0.121325 -0.633873,-0.821375 -1.902268,-1.655726 -2.928013,-1.726444 0,0 -0.0019,0 -0.0019,-0.0013"
               id="Fill-12"
               inkscape:connector-curvature="0"
               style="fill:#ffffff" />
            <path
               d="m 74.753213,10.390456 c 0.811643,-0.03439 1.243092,2.322687 1.241794,2.588044 l 0.0013,0.0019 c 0,0.265357 -0.432746,2.622431 -1.242443,2.589342 -1.131499,-0.04542 -2.271432,-2.473207 -2.276622,-2.589342 0.0052,-0.118081 1.145123,-2.54717 2.275973,-2.58999 m -4.22301,2.58809 h -6.49e-4 l 6.49e-4,0.0019 h -6.49e-4 6.49e-4 c 0.995901,2.779439 2.146864,4.053024 3.786369,3.845409 1.539591,-0.197233 2.173464,-2.185142 2.212392,-3.845409 V 12.9785 C 76.489389,11.318233 75.857463,9.3283778 74.316574,9.1330905 72.677069,8.9235296 71.526106,10.197115 70.530205,12.9785"
               id="Fill-14"
               inkscape:connector-curvature="0"
               style="fill:#ffffff" />
            <path
               d="m 67.827973,12.980252 v 0 c 1.152909,2.089769 2.303872,2.848859 3.087617,3.227107 0.06553,0.02984 0.12911,0.03633 0.128461,0.0052 0,-0.02465 -0.01233,-0.04087 -0.05839,-0.108348 -0.674747,-1.01796 -1.215193,-2.102746 -1.460438,-3.123949 h -6.48e-4 l 6.48e-4,-0.0019 c 0.245894,-1.021203 0.786989,-2.105989 1.460438,-3.1239489 0.04671,-0.066826 0.05839,-0.084992 0.05774,-0.1083488 0.0013,-0.031142 -0.06228,-0.024005 -0.12911,0.00519 -0.782447,0.3788967 -1.934707,1.1373387 -3.08567,3.2271077 0.0013,0 -6.49e-4,0 -6.49e-4,0.0019"
               id="Fill-16"
               inkscape:connector-curvature="0"
               style="fill:#afdff9" />
            <path
               d="m 65.658661,12.980252 0.0013,-0.0019 c 0.384087,0.955676 1.568787,1.904863 2.546521,2.253915 0.08434,0.03309 0.132355,0.03114 0.132355,0.0084 6.48e-4,-0.02141 -0.01687,-0.04736 -0.0519,-0.09213 -0.857707,-0.999793 -1.184052,-1.58306 -1.456545,-2.17022 0.272493,-0.583267 0.598838,-1.16848 1.457194,-2.168274 0.03439,-0.04412 0.05125,-0.07072 0.04931,-0.09148 6.49e-4,-0.02336 -0.04477,-0.02465 -0.12911,0.0078 -0.979032,0.349052 -2.163732,1.298239 -2.547819,2.251968 z"
               id="Fill-18"
               inkscape:connector-curvature="0"
               style="fill:#ffffff" />
            <path
               d="m 64.548962,1.5227873 c 0.217995,-0.78179827 2.594532,-0.4638886 2.846265,-0.3821404 h 6.49e-4 c 0.253678,0.082397 2.362263,1.2216814 2.080037,1.9820694 -0.39317,1.0620778 -3.054528,1.3962074 -3.166769,1.3650652 -0.110296,-0.040874 -2.06836,-1.8763158 -1.760182,-2.9649942 m 1.157451,4.8173046 v 0 h 0.0013 C 68.659729,6.2518557 70.226569,5.5498593 70.534747,3.9259248 70.82411,2.401256 69.128159,1.1834674 67.561967,0.63458662 h -0.0019 C 65.968572,0.15901971 63.8801,0.14409742 63.219627,1.5487391 c -0.706538,1.4948242 0.149222,2.9838093 2.486832,4.7913528"
               id="Fill-20"
               inkscape:connector-curvature="0"
               style="fill:#ffffff" />
            <path
               d="m 64.871867,8.9086722 h 0.0013 c 2.344097,-0.4489663 3.421097,-1.3099176 4.02253,-1.9373026 0.04931,-0.054499 0.07526,-0.1128903 0.04412,-0.1213247 -0.02271,-0.00843 -0.04152,-0.00195 -0.120027,0.02141 -1.176265,0.3276416 -2.375239,0.5060603 -3.422395,0.4243121 h -0.0013 l -6.49e-4,-0.0013 C 64.49946,6.7449374 63.634616,5.8963132 62.875525,4.9406379 c -0.04931,-0.065528 -0.06228,-0.082397 -0.08434,-0.088885 -0.02985,-0.011029 -0.04347,0.052552 -0.03568,0.1245687 0.118081,0.8622489 0.484002,2.1916303 2.115722,3.9323479 6.48e-4,-0.0013 6.48e-4,0 6.48e-4,0"
               id="Fill-22"
               inkscape:connector-curvature="0"
               style="fill:#afdff9" />
            <path
               d="m 64.202246,10.972295 -6.49e-4,-0.0013 c 1.027692,-0.07072 2.296086,-0.903772 2.929959,-1.7264445 0.05644,-0.07007 0.07137,-0.1148368 0.04801,-0.1226223 -0.01946,-0.00649 -0.04996,0.0013 -0.103158,0.02141 -1.216491,0.5060603 -1.871775,0.637117 -2.512784,0.7143236 -0.471674,-0.4392344 -0.927129,-0.9310212 -1.612905,-2.0553833 -0.03114,-0.047362 -0.05061,-0.070719 -0.07202,-0.07526 -0.02206,-0.00843 -0.03763,0.034386 -0.03114,0.1258663 0.0292,1.0374236 0.56575,2.4589342 1.354036,3.1181102 0,0 0,0.0013 6.49e-4,0.0013"
               id="Fill-24"
               inkscape:connector-curvature="0"
               style="fill:#ffffff" />
            <path
               d="m 52.962971,8.4874095 c -0.676044,-0.4489663 0.360082,-2.6114009 0.51709,-2.8242057 v -0.00195 c 0.155711,-0.2147512 1.891887,-1.8685302 2.526409,-1.3650651 0.889498,0.7013476 0.384735,3.3354563 0.320505,3.4340731 -0.07331,0.09148 -2.42325,1.3864754 -3.364004,0.7571441 m 4.93863,0.3886283 h 6.49e-4 v -0.00195 C 58.730112,6.0401538 58.547152,4.3325248 57.098392,3.5371018 55.737869,2.7916361 54.055543,4.027591 53.047964,5.3485381 c -0.943349,1.3670116 -1.601876,3.3484322 -0.470377,4.41051 1.202218,1.1347429 2.883895,0.7805009 5.324014,-0.8830103"
               id="Fill-26"
               inkscape:connector-curvature="0"
               style="fill:#ffffff" />
            <path
               d="m 60.087327,10.462537 h 6.49e-4 c 0.29585,-2.3687516 -0.189449,-3.6585565 -0.600785,-4.4254325 -0.03568,-0.064231 -0.08305,-0.1064024 -0.101212,-0.080451 -0.01362,0.019464 -0.01427,0.040874 -0.01687,0.1213247 -0.05125,1.219735 -0.252382,2.4161135 -0.653986,3.3860623 v 0.00195 h -0.0013 c -0.798667,0.6818835 -1.874369,1.2424425 -3.017546,1.6687015 -0.07721,0.0279 -0.09667,0.03439 -0.110295,0.05385 -0.01946,0.02465 0.03633,0.05774 0.1077,0.07072 0.855761,0.155711 2.233153,0.217996 4.392992,-0.795423 0,-0.0013 6.49e-4,-0.0013 6.49e-4,-0.0013"
               id="Fill-28"
               inkscape:connector-curvature="0"
               style="fill:#afdff9" />
            <path
               d="m 61.842772,11.737744 h -0.0013 c 0.250435,-0.997847 -0.150521,-2.4634757 -0.736383,-3.3192366 -0.04931,-0.077207 -0.08759,-0.1031584 -0.101861,-0.083695 -0.01298,0.016869 -0.01427,0.046064 -0.01168,0.1031585 0.106402,1.3131615 0.0266,1.9768791 -0.09797,2.6114011 -0.561857,0.313368 -1.170427,0.592999 -2.452446,0.899879 -0.05385,0.01298 -0.08305,0.02465 -0.09472,0.04282 -0.01362,0.01946 0.02206,0.04736 0.110944,0.07007 0.995252,0.291958 2.513432,0.22124 3.384116,-0.324397 z"
               id="Fill-30"
               inkscape:connector-curvature="0"
               style="fill:#ffffff" />
            <path
               d="M 33.879568,19.999697 V 7.4202062 H 30.978156 V 22.709715 H 41.929819 V 19.999697 Z M 20.901717,16.879641 C 20.262654,15.386763 16.855181,7.4202062 16.855181,7.4202062 h -2.984458 l 6.541154,15.2895088 h 1.032882 L 27.887944,7.4202062 h -2.973429 c 0,0 -3.378925,7.9646098 -4.012798,9.4594348 z"
               id="Fill-32"
               inkscape:connector-curvature="0"
               style="fill:#ffffff" />
            <path
               d="M 9.6100199,16.491207 H 5.7302244 c 0.3321831,-0.788286 1.4020465,-3.323129 1.8782622,-4.453331 0.5034651,1.121119 1.6427495,3.655962 2.0015333,4.453331 z M 8.6037385,7.419752 H 6.5950684 L 0.08181308,22.709909 H 3.107794 c 0,0 1.311864,-3.113568 1.4974194,-3.551505 h 6.2044286 c 0.191395,0.42561 1.596685,3.551505 1.596685,3.551505 h 3.020791 z"
               id="Fill-34"
               inkscape:connector-curvature="0"
               style="fill:#ffffff" />
          </g>
        </g>
      </g>
    </g>
  </g>
</svg>
